G04 PROTEUS RS274X GERBER FILE*
%FSLAX45Y45*%
%MOMM*%
G01*
%ADD70C,0.203200*%
%ADD71C,0.127000*%
%ADD20C,0.063500*%
%TD.AperFunction*%
D70*
X-2533834Y+764485D02*
X-2533834Y+637485D01*
X-2597334Y+700985D02*
X-2470334Y+700985D01*
X-2534819Y+763500D02*
X-2534819Y+636500D01*
X-2598319Y+700000D02*
X-2471319Y+700000D01*
X-2000000Y+363500D02*
X-2000000Y+236500D01*
X-2063500Y+300000D02*
X-1936500Y+300000D01*
X-366500Y+1320000D02*
X-366717Y+1325247D01*
X-368482Y+1335742D01*
X-372174Y+1346237D01*
X-378202Y+1356732D01*
X-387424Y+1367112D01*
X-397919Y+1374800D01*
X-408414Y+1379718D01*
X-418909Y+1382524D01*
X-429404Y+1383497D01*
X-430000Y+1383500D01*
X-493500Y+1320000D02*
X-493283Y+1325247D01*
X-491518Y+1335742D01*
X-487826Y+1346237D01*
X-481798Y+1356732D01*
X-472576Y+1367112D01*
X-462081Y+1374800D01*
X-451586Y+1379718D01*
X-441091Y+1382524D01*
X-430596Y+1383497D01*
X-430000Y+1383500D01*
X-493500Y+1320000D02*
X-493283Y+1314753D01*
X-491518Y+1304258D01*
X-487826Y+1293763D01*
X-481798Y+1283268D01*
X-472576Y+1272888D01*
X-462081Y+1265200D01*
X-451586Y+1260282D01*
X-441091Y+1257476D01*
X-430596Y+1256503D01*
X-430000Y+1256500D01*
X-366500Y+1320000D02*
X-366717Y+1314753D01*
X-368482Y+1304258D01*
X-372174Y+1293763D01*
X-378202Y+1283268D01*
X-387424Y+1272888D01*
X-397919Y+1265200D01*
X-408414Y+1260282D01*
X-418909Y+1257476D01*
X-429404Y+1256503D01*
X-430000Y+1256500D01*
X-474901Y+1364901D02*
X-385099Y+1275099D01*
X-474901Y+1275099D02*
X-385099Y+1364901D01*
X-366500Y+812000D02*
X-366717Y+817247D01*
X-368482Y+827742D01*
X-372174Y+838237D01*
X-378202Y+848732D01*
X-387424Y+859112D01*
X-397919Y+866800D01*
X-408414Y+871718D01*
X-418909Y+874524D01*
X-429404Y+875497D01*
X-430000Y+875500D01*
X-493500Y+812000D02*
X-493283Y+817247D01*
X-491518Y+827742D01*
X-487826Y+838237D01*
X-481798Y+848732D01*
X-472576Y+859112D01*
X-462081Y+866800D01*
X-451586Y+871718D01*
X-441091Y+874524D01*
X-430596Y+875497D01*
X-430000Y+875500D01*
X-493500Y+812000D02*
X-493283Y+806753D01*
X-491518Y+796258D01*
X-487826Y+785763D01*
X-481798Y+775268D01*
X-472576Y+764888D01*
X-462081Y+757200D01*
X-451586Y+752282D01*
X-441091Y+749476D01*
X-430596Y+748503D01*
X-430000Y+748500D01*
X-366500Y+812000D02*
X-366717Y+806753D01*
X-368482Y+796258D01*
X-372174Y+785763D01*
X-378202Y+775268D01*
X-387424Y+764888D01*
X-397919Y+757200D01*
X-408414Y+752282D01*
X-418909Y+749476D01*
X-429404Y+748503D01*
X-430000Y+748500D01*
X-474901Y+856901D02*
X-385099Y+767099D01*
X-474901Y+767099D02*
X-385099Y+856901D01*
X-550000Y+1913500D02*
X-550000Y+1786500D01*
X-613500Y+1850000D02*
X-486500Y+1850000D01*
X-594901Y+1894901D02*
X-505099Y+1805099D01*
X-594901Y+1805099D02*
X-505099Y+1894901D01*
X-550000Y+2163500D02*
X-550000Y+2036500D01*
X-613500Y+2100000D02*
X-486500Y+2100000D01*
X-594901Y+2144901D02*
X-505099Y+2055099D01*
X-594901Y+2055099D02*
X-505099Y+2144901D01*
X-550000Y+2413500D02*
X-550000Y+2286500D01*
X-613500Y+2350000D02*
X-486500Y+2350000D01*
X-594901Y+2394901D02*
X-505099Y+2305099D01*
X-594901Y+2305099D02*
X-505099Y+2394901D01*
X-2194901Y+2394901D02*
X-2105099Y+2305099D01*
X-2194901Y+2305099D02*
X-2105099Y+2394901D01*
X-1178901Y+2394901D02*
X-1089099Y+2305099D01*
X-1178901Y+2305099D02*
X-1089099Y+2394901D01*
X-2194901Y+1994901D02*
X-2105099Y+1905099D01*
X-2194901Y+1905099D02*
X-2105099Y+1994901D01*
X-1178901Y+1994901D02*
X-1089099Y+1905099D01*
X-1178901Y+1905099D02*
X-1089099Y+1994901D01*
X-2736500Y+2350000D02*
X-2736717Y+2355247D01*
X-2738482Y+2365742D01*
X-2742174Y+2376237D01*
X-2748202Y+2386732D01*
X-2757424Y+2397112D01*
X-2767919Y+2404800D01*
X-2778414Y+2409718D01*
X-2788909Y+2412524D01*
X-2799404Y+2413497D01*
X-2800000Y+2413500D01*
X-2863500Y+2350000D02*
X-2863283Y+2355247D01*
X-2861518Y+2365742D01*
X-2857826Y+2376237D01*
X-2851798Y+2386732D01*
X-2842576Y+2397112D01*
X-2832081Y+2404800D01*
X-2821586Y+2409718D01*
X-2811091Y+2412524D01*
X-2800596Y+2413497D01*
X-2800000Y+2413500D01*
X-2863500Y+2350000D02*
X-2863283Y+2344753D01*
X-2861518Y+2334258D01*
X-2857826Y+2323763D01*
X-2851798Y+2313268D01*
X-2842576Y+2302888D01*
X-2832081Y+2295200D01*
X-2821586Y+2290282D01*
X-2811091Y+2287476D01*
X-2800596Y+2286503D01*
X-2800000Y+2286500D01*
X-2736500Y+2350000D02*
X-2736717Y+2344753D01*
X-2738482Y+2334258D01*
X-2742174Y+2323763D01*
X-2748202Y+2313268D01*
X-2757424Y+2302888D01*
X-2767919Y+2295200D01*
X-2778414Y+2290282D01*
X-2788909Y+2287476D01*
X-2799404Y+2286503D01*
X-2800000Y+2286500D01*
X-2800000Y+2413500D02*
X-2800000Y+2286500D01*
X-2863500Y+2350000D02*
X-2736500Y+2350000D01*
X-2736500Y+2096000D02*
X-2736717Y+2101247D01*
X-2738482Y+2111742D01*
X-2742174Y+2122237D01*
X-2748202Y+2132732D01*
X-2757424Y+2143112D01*
X-2767919Y+2150800D01*
X-2778414Y+2155718D01*
X-2788909Y+2158524D01*
X-2799404Y+2159497D01*
X-2800000Y+2159500D01*
X-2863500Y+2096000D02*
X-2863283Y+2101247D01*
X-2861518Y+2111742D01*
X-2857826Y+2122237D01*
X-2851798Y+2132732D01*
X-2842576Y+2143112D01*
X-2832081Y+2150800D01*
X-2821586Y+2155718D01*
X-2811091Y+2158524D01*
X-2800596Y+2159497D01*
X-2800000Y+2159500D01*
X-2863500Y+2096000D02*
X-2863283Y+2090753D01*
X-2861518Y+2080258D01*
X-2857826Y+2069763D01*
X-2851798Y+2059268D01*
X-2842576Y+2048888D01*
X-2832081Y+2041200D01*
X-2821586Y+2036282D01*
X-2811091Y+2033476D01*
X-2800596Y+2032503D01*
X-2800000Y+2032500D01*
X-2736500Y+2096000D02*
X-2736717Y+2090753D01*
X-2738482Y+2080258D01*
X-2742174Y+2069763D01*
X-2748202Y+2059268D01*
X-2757424Y+2048888D01*
X-2767919Y+2041200D01*
X-2778414Y+2036282D01*
X-2788909Y+2033476D01*
X-2799404Y+2032503D01*
X-2800000Y+2032500D01*
X-2800000Y+2159500D02*
X-2800000Y+2032500D01*
X-2863500Y+2096000D02*
X-2736500Y+2096000D01*
X-2736500Y+1750000D02*
X-2736717Y+1755247D01*
X-2738482Y+1765742D01*
X-2742174Y+1776237D01*
X-2748202Y+1786732D01*
X-2757424Y+1797112D01*
X-2767919Y+1804800D01*
X-2778414Y+1809718D01*
X-2788909Y+1812524D01*
X-2799404Y+1813497D01*
X-2800000Y+1813500D01*
X-2863500Y+1750000D02*
X-2863283Y+1755247D01*
X-2861518Y+1765742D01*
X-2857826Y+1776237D01*
X-2851798Y+1786732D01*
X-2842576Y+1797112D01*
X-2832081Y+1804800D01*
X-2821586Y+1809718D01*
X-2811091Y+1812524D01*
X-2800596Y+1813497D01*
X-2800000Y+1813500D01*
X-2863500Y+1750000D02*
X-2863283Y+1744753D01*
X-2861518Y+1734258D01*
X-2857826Y+1723763D01*
X-2851798Y+1713268D01*
X-2842576Y+1702888D01*
X-2832081Y+1695200D01*
X-2821586Y+1690282D01*
X-2811091Y+1687476D01*
X-2800596Y+1686503D01*
X-2800000Y+1686500D01*
X-2736500Y+1750000D02*
X-2736717Y+1744753D01*
X-2738482Y+1734258D01*
X-2742174Y+1723763D01*
X-2748202Y+1713268D01*
X-2757424Y+1702888D01*
X-2767919Y+1695200D01*
X-2778414Y+1690282D01*
X-2788909Y+1687476D01*
X-2799404Y+1686503D01*
X-2800000Y+1686500D01*
X-2800000Y+1813500D02*
X-2800000Y+1686500D01*
X-2863500Y+1750000D02*
X-2736500Y+1750000D01*
X-2736500Y+1496000D02*
X-2736717Y+1501247D01*
X-2738482Y+1511742D01*
X-2742174Y+1522237D01*
X-2748202Y+1532732D01*
X-2757424Y+1543112D01*
X-2767919Y+1550800D01*
X-2778414Y+1555718D01*
X-2788909Y+1558524D01*
X-2799404Y+1559497D01*
X-2800000Y+1559500D01*
X-2863500Y+1496000D02*
X-2863283Y+1501247D01*
X-2861518Y+1511742D01*
X-2857826Y+1522237D01*
X-2851798Y+1532732D01*
X-2842576Y+1543112D01*
X-2832081Y+1550800D01*
X-2821586Y+1555718D01*
X-2811091Y+1558524D01*
X-2800596Y+1559497D01*
X-2800000Y+1559500D01*
X-2863500Y+1496000D02*
X-2863283Y+1490753D01*
X-2861518Y+1480258D01*
X-2857826Y+1469763D01*
X-2851798Y+1459268D01*
X-2842576Y+1448888D01*
X-2832081Y+1441200D01*
X-2821586Y+1436282D01*
X-2811091Y+1433476D01*
X-2800596Y+1432503D01*
X-2800000Y+1432500D01*
X-2736500Y+1496000D02*
X-2736717Y+1490753D01*
X-2738482Y+1480258D01*
X-2742174Y+1469763D01*
X-2748202Y+1459268D01*
X-2757424Y+1448888D01*
X-2767919Y+1441200D01*
X-2778414Y+1436282D01*
X-2788909Y+1433476D01*
X-2799404Y+1432503D01*
X-2800000Y+1432500D01*
X-2800000Y+1559500D02*
X-2800000Y+1432500D01*
X-2863500Y+1496000D02*
X-2736500Y+1496000D01*
X-1944901Y+1341701D02*
X-1855099Y+1251899D01*
X-1944901Y+1251899D02*
X-1855099Y+1341701D01*
X-1944901Y+1544901D02*
X-1855099Y+1455099D01*
X-1944901Y+1455099D02*
X-1855099Y+1544901D01*
X-1944901Y+1748101D02*
X-1855099Y+1658299D01*
X-1944901Y+1658299D02*
X-1855099Y+1748101D01*
X-2044901Y+1048101D02*
X-1955099Y+958299D01*
X-2044901Y+958299D02*
X-1955099Y+1048101D01*
X-2044901Y+844901D02*
X-1955099Y+755099D01*
X-2044901Y+755099D02*
X-1955099Y+844901D01*
X-2044901Y+641701D02*
X-1955099Y+551899D01*
X-2044901Y+551899D02*
X-1955099Y+641701D01*
X-1544901Y+1844901D02*
X-1455099Y+1755099D01*
X-1544901Y+1755099D02*
X-1455099Y+1844901D01*
X-1544901Y+828901D02*
X-1455099Y+739099D01*
X-1544901Y+739099D02*
X-1455099Y+828901D01*
X-1194901Y+1744901D02*
X-1105099Y+1655099D01*
X-1194901Y+1655099D02*
X-1105099Y+1744901D01*
X-1194901Y+728901D02*
X-1105099Y+639099D01*
X-1194901Y+639099D02*
X-1105099Y+728901D01*
X-2544901Y+1294901D02*
X-2455099Y+1205099D01*
X-2544901Y+1205099D02*
X-2455099Y+1294901D01*
X-2544901Y+1040901D02*
X-2455099Y+951099D01*
X-2544901Y+951099D02*
X-2455099Y+1040901D01*
X-3094901Y+744901D02*
X-3005099Y+655099D01*
X-3094901Y+655099D02*
X-3005099Y+744901D01*
X-2840901Y+744901D02*
X-2751099Y+655099D01*
X-2840901Y+655099D02*
X-2751099Y+744901D01*
X-3540000Y+140000D02*
X-120000Y+140000D01*
X-120000Y+2650000D01*
X-3540000Y+2650000D01*
X-3540000Y+140000D01*
D71*
X-3552700Y-1612600D02*
X-908560Y-1612600D01*
X-908560Y-126700D01*
X-3552700Y-126700D01*
X-3552700Y-1612600D01*
D20*
X-3085338Y-126700D02*
X-3085338Y-1612600D01*
X-2272538Y-126700D02*
X-2272538Y-1612600D01*
X-1439418Y-126700D02*
X-1439418Y-1612600D01*
X-3552700Y-399750D02*
X-908560Y-399750D01*
X-3552700Y-641050D02*
X-908560Y-641050D01*
X-3552700Y-882350D02*
X-908560Y-882350D01*
X-3552700Y-1123650D02*
X-908560Y-1123650D01*
X-3552700Y-1364950D02*
X-908560Y-1364950D01*
D71*
X-3495550Y-290530D02*
X-3480310Y-305770D01*
X-3419350Y-305770D01*
X-3404110Y-290530D01*
X-3404110Y-275290D01*
X-3419350Y-260050D01*
X-3480310Y-260050D01*
X-3495550Y-244810D01*
X-3495550Y-229570D01*
X-3480310Y-214330D01*
X-3419350Y-214330D01*
X-3404110Y-229570D01*
X-3282190Y-214330D02*
X-3373630Y-305770D01*
X-3373630Y-214330D02*
X-3327910Y-260050D01*
X-3251710Y-305770D02*
X-3251710Y-214330D01*
X-3205990Y-260050D01*
X-3160270Y-214330D01*
X-3160270Y-305770D01*
X-3028190Y-290530D02*
X-3012950Y-305770D01*
X-2951990Y-305770D01*
X-2936750Y-290530D01*
X-2936750Y-275290D01*
X-2951990Y-260050D01*
X-3012950Y-260050D01*
X-3028190Y-244810D01*
X-3028190Y-229570D01*
X-3012950Y-214330D01*
X-2951990Y-214330D01*
X-2936750Y-229570D01*
X-2891030Y-214330D02*
X-2830070Y-214330D01*
X-2860550Y-214330D02*
X-2860550Y-305770D01*
X-2891030Y-305770D02*
X-2830070Y-305770D01*
X-2784350Y-214330D02*
X-2692910Y-214330D01*
X-2784350Y-305770D01*
X-2692910Y-305770D01*
X-2570990Y-305770D02*
X-2662430Y-305770D01*
X-2662430Y-214330D01*
X-2570990Y-214330D01*
X-2662430Y-260050D02*
X-2601470Y-260050D01*
X-2215390Y-305770D02*
X-2215390Y-214330D01*
X-2139190Y-214330D01*
X-2123950Y-229570D01*
X-2123950Y-244810D01*
X-2139190Y-260050D01*
X-2215390Y-260050D01*
X-2093470Y-214330D02*
X-2093470Y-305770D01*
X-2002030Y-305770D01*
X-1971550Y-305770D02*
X-1971550Y-244810D01*
X-1941070Y-214330D01*
X-1910590Y-214330D01*
X-1880110Y-244810D01*
X-1880110Y-305770D01*
X-1971550Y-275290D02*
X-1880110Y-275290D01*
X-1849630Y-214330D02*
X-1758190Y-214330D01*
X-1803910Y-214330D02*
X-1803910Y-305770D01*
X-1636270Y-305770D02*
X-1727710Y-305770D01*
X-1727710Y-214330D01*
X-1636270Y-214330D01*
X-1727710Y-260050D02*
X-1666750Y-260050D01*
X-1605790Y-305770D02*
X-1605790Y-214330D01*
X-1544830Y-214330D01*
X-1514350Y-244810D01*
X-1514350Y-275290D01*
X-1544830Y-305770D01*
X-1605790Y-305770D01*
X-1382270Y-244810D02*
X-1351790Y-214330D01*
X-1321310Y-214330D01*
X-1290830Y-244810D01*
X-1290830Y-275290D01*
X-1321310Y-305770D01*
X-1351790Y-305770D01*
X-1382270Y-275290D01*
X-1382270Y-244810D01*
X-1321310Y-275290D02*
X-1290830Y-305770D01*
X-1260350Y-214330D02*
X-1168910Y-214330D01*
X-1214630Y-214330D02*
X-1214630Y-305770D01*
X-1046990Y-214330D02*
X-1138430Y-305770D01*
X-1138430Y-214330D02*
X-1092710Y-260050D01*
D70*
X-3306320Y-450550D02*
X-3306320Y-577550D01*
X-3369820Y-514050D02*
X-3242820Y-514050D01*
D71*
X-3009140Y-539450D02*
X-3009140Y-488650D01*
X-2996440Y-475950D01*
X-2945640Y-475950D01*
X-2932940Y-488650D01*
X-2932940Y-539450D01*
X-2945640Y-552150D01*
X-2996440Y-552150D01*
X-3009140Y-539450D01*
X-3009140Y-552150D02*
X-2932940Y-475950D01*
X-2869440Y-539450D02*
X-2856740Y-539450D01*
X-2856740Y-552150D01*
X-2869440Y-552150D01*
X-2869440Y-539450D01*
X-2729740Y-475950D02*
X-2793240Y-475950D01*
X-2793240Y-501350D01*
X-2742440Y-501350D01*
X-2729740Y-514050D01*
X-2729740Y-539450D01*
X-2742440Y-552150D01*
X-2780540Y-552150D01*
X-2793240Y-539450D01*
X-2704340Y-539450D02*
X-2704340Y-488650D01*
X-2691640Y-475950D01*
X-2640840Y-475950D01*
X-2628140Y-488650D01*
X-2628140Y-539450D01*
X-2640840Y-552150D01*
X-2691640Y-552150D01*
X-2704340Y-539450D01*
X-2704340Y-552150D02*
X-2628140Y-475950D01*
X-2577340Y-514050D02*
X-2590040Y-501350D01*
X-2590040Y-488650D01*
X-2577340Y-475950D01*
X-2539240Y-475950D01*
X-2526540Y-488650D01*
X-2526540Y-501350D01*
X-2539240Y-514050D01*
X-2577340Y-514050D01*
X-2590040Y-526750D01*
X-2590040Y-539450D01*
X-2577340Y-552150D01*
X-2539240Y-552150D01*
X-2526540Y-539450D01*
X-2526540Y-526750D01*
X-2539240Y-514050D01*
X-2501140Y-552150D02*
X-2501140Y-501350D01*
X-2501140Y-514050D02*
X-2488440Y-501350D01*
X-2463040Y-526750D01*
X-2437640Y-501350D01*
X-2424940Y-514050D01*
X-2424940Y-552150D01*
X-2399540Y-552150D02*
X-2399540Y-501350D01*
X-2399540Y-514050D02*
X-2386840Y-501350D01*
X-2361440Y-526750D01*
X-2336040Y-501350D01*
X-2323340Y-514050D01*
X-2323340Y-552150D01*
X-2107440Y-475950D02*
X-2183640Y-552150D01*
X-2183640Y-475950D02*
X-2145540Y-514050D01*
X-2005840Y-552150D02*
X-2082040Y-552150D01*
X-2082040Y-475950D01*
X-2005840Y-475950D01*
X-2082040Y-514050D02*
X-2031240Y-514050D01*
X-1980440Y-539450D02*
X-1967740Y-552150D01*
X-1916940Y-552150D01*
X-1904240Y-539450D01*
X-1904240Y-526750D01*
X-1916940Y-514050D01*
X-1967740Y-514050D01*
X-1980440Y-501350D01*
X-1980440Y-488650D01*
X-1967740Y-475950D01*
X-1916940Y-475950D01*
X-1904240Y-488650D01*
X-1325120Y-488650D02*
X-1312420Y-475950D01*
X-1274320Y-475950D01*
X-1261620Y-488650D01*
X-1261620Y-501350D01*
X-1274320Y-514050D01*
X-1261620Y-526750D01*
X-1261620Y-539450D01*
X-1274320Y-552150D01*
X-1312420Y-552150D01*
X-1325120Y-539450D01*
X-1299720Y-514050D02*
X-1274320Y-514050D01*
D70*
X-3351221Y-710449D02*
X-3261419Y-800251D01*
X-3351221Y-800251D02*
X-3261419Y-710449D01*
D71*
X-3009140Y-780750D02*
X-3009140Y-729950D01*
X-2996440Y-717250D01*
X-2945640Y-717250D01*
X-2932940Y-729950D01*
X-2932940Y-780750D01*
X-2945640Y-793450D01*
X-2996440Y-793450D01*
X-3009140Y-780750D01*
X-3009140Y-793450D02*
X-2932940Y-717250D01*
X-2869440Y-780750D02*
X-2856740Y-780750D01*
X-2856740Y-793450D01*
X-2869440Y-793450D01*
X-2869440Y-780750D01*
X-2793240Y-717250D02*
X-2729740Y-717250D01*
X-2729740Y-729950D01*
X-2793240Y-793450D01*
X-2628140Y-729950D02*
X-2640840Y-717250D01*
X-2678940Y-717250D01*
X-2691640Y-729950D01*
X-2691640Y-780750D01*
X-2678940Y-793450D01*
X-2640840Y-793450D01*
X-2628140Y-780750D01*
X-2628140Y-768050D01*
X-2640840Y-755350D01*
X-2691640Y-755350D01*
X-2590040Y-729950D02*
X-2577340Y-717250D01*
X-2539240Y-717250D01*
X-2526540Y-729950D01*
X-2526540Y-742650D01*
X-2539240Y-755350D01*
X-2577340Y-755350D01*
X-2590040Y-768050D01*
X-2590040Y-793450D01*
X-2526540Y-793450D01*
X-2501140Y-793450D02*
X-2501140Y-742650D01*
X-2501140Y-755350D02*
X-2488440Y-742650D01*
X-2463040Y-768050D01*
X-2437640Y-742650D01*
X-2424940Y-755350D01*
X-2424940Y-793450D01*
X-2399540Y-793450D02*
X-2399540Y-742650D01*
X-2399540Y-755350D02*
X-2386840Y-742650D01*
X-2361440Y-768050D01*
X-2336040Y-742650D01*
X-2323340Y-755350D01*
X-2323340Y-793450D01*
X-2107440Y-717250D02*
X-2183640Y-793450D01*
X-2183640Y-717250D02*
X-2145540Y-755350D01*
X-2005840Y-793450D02*
X-2082040Y-793450D01*
X-2082040Y-717250D01*
X-2005840Y-717250D01*
X-2082040Y-755350D02*
X-2031240Y-755350D01*
X-1980440Y-780750D02*
X-1967740Y-793450D01*
X-1916940Y-793450D01*
X-1904240Y-780750D01*
X-1904240Y-768050D01*
X-1916940Y-755350D01*
X-1967740Y-755350D01*
X-1980440Y-742650D01*
X-1980440Y-729950D01*
X-1967740Y-717250D01*
X-1916940Y-717250D01*
X-1904240Y-729950D01*
X-1312420Y-742650D02*
X-1287020Y-717250D01*
X-1287020Y-793450D01*
X-1210820Y-755350D02*
X-1223520Y-742650D01*
X-1223520Y-729950D01*
X-1210820Y-717250D01*
X-1172720Y-717250D01*
X-1160020Y-729950D01*
X-1160020Y-742650D01*
X-1172720Y-755350D01*
X-1210820Y-755350D01*
X-1223520Y-768050D01*
X-1223520Y-780750D01*
X-1210820Y-793450D01*
X-1172720Y-793450D01*
X-1160020Y-780750D01*
X-1160020Y-768050D01*
X-1172720Y-755350D01*
D70*
X-3306320Y-933150D02*
X-3306320Y-1060150D01*
X-3369820Y-996650D02*
X-3242820Y-996650D01*
X-3351221Y-951749D02*
X-3261419Y-1041551D01*
X-3351221Y-1041551D02*
X-3261419Y-951749D01*
D71*
X-3009140Y-1022050D02*
X-3009140Y-971250D01*
X-2996440Y-958550D01*
X-2945640Y-958550D01*
X-2932940Y-971250D01*
X-2932940Y-1022050D01*
X-2945640Y-1034750D01*
X-2996440Y-1034750D01*
X-3009140Y-1022050D01*
X-3009140Y-1034750D02*
X-2932940Y-958550D01*
X-2869440Y-1022050D02*
X-2856740Y-1022050D01*
X-2856740Y-1034750D01*
X-2869440Y-1034750D01*
X-2869440Y-1022050D01*
X-2780540Y-996650D02*
X-2793240Y-983950D01*
X-2793240Y-971250D01*
X-2780540Y-958550D01*
X-2742440Y-958550D01*
X-2729740Y-971250D01*
X-2729740Y-983950D01*
X-2742440Y-996650D01*
X-2780540Y-996650D01*
X-2793240Y-1009350D01*
X-2793240Y-1022050D01*
X-2780540Y-1034750D01*
X-2742440Y-1034750D01*
X-2729740Y-1022050D01*
X-2729740Y-1009350D01*
X-2742440Y-996650D01*
X-2678940Y-996650D02*
X-2691640Y-983950D01*
X-2691640Y-971250D01*
X-2678940Y-958550D01*
X-2640840Y-958550D01*
X-2628140Y-971250D01*
X-2628140Y-983950D01*
X-2640840Y-996650D01*
X-2678940Y-996650D01*
X-2691640Y-1009350D01*
X-2691640Y-1022050D01*
X-2678940Y-1034750D01*
X-2640840Y-1034750D01*
X-2628140Y-1022050D01*
X-2628140Y-1009350D01*
X-2640840Y-996650D01*
X-2526540Y-983950D02*
X-2539240Y-996650D01*
X-2577340Y-996650D01*
X-2590040Y-983950D01*
X-2590040Y-971250D01*
X-2577340Y-958550D01*
X-2539240Y-958550D01*
X-2526540Y-971250D01*
X-2526540Y-1022050D01*
X-2539240Y-1034750D01*
X-2577340Y-1034750D01*
X-2501140Y-1034750D02*
X-2501140Y-983950D01*
X-2501140Y-996650D02*
X-2488440Y-983950D01*
X-2463040Y-1009350D01*
X-2437640Y-983950D01*
X-2424940Y-996650D01*
X-2424940Y-1034750D01*
X-2399540Y-1034750D02*
X-2399540Y-983950D01*
X-2399540Y-996650D02*
X-2386840Y-983950D01*
X-2361440Y-1009350D01*
X-2336040Y-983950D01*
X-2323340Y-996650D01*
X-2323340Y-1034750D01*
X-2107440Y-958550D02*
X-2183640Y-1034750D01*
X-2183640Y-958550D02*
X-2145540Y-996650D01*
X-2005840Y-1034750D02*
X-2082040Y-1034750D01*
X-2082040Y-958550D01*
X-2005840Y-958550D01*
X-2082040Y-996650D02*
X-2031240Y-996650D01*
X-1980440Y-1022050D02*
X-1967740Y-1034750D01*
X-1916940Y-1034750D01*
X-1904240Y-1022050D01*
X-1904240Y-1009350D01*
X-1916940Y-996650D01*
X-1967740Y-996650D01*
X-1980440Y-983950D01*
X-1980440Y-971250D01*
X-1967740Y-958550D01*
X-1916940Y-958550D01*
X-1904240Y-971250D01*
X-1325120Y-971250D02*
X-1312420Y-958550D01*
X-1274320Y-958550D01*
X-1261620Y-971250D01*
X-1261620Y-983950D01*
X-1274320Y-996650D01*
X-1261620Y-1009350D01*
X-1261620Y-1022050D01*
X-1274320Y-1034750D01*
X-1312420Y-1034750D01*
X-1325120Y-1022050D01*
X-1299720Y-996650D02*
X-1274320Y-996650D01*
D70*
X-3242820Y-1237950D02*
X-3243037Y-1232703D01*
X-3244802Y-1222208D01*
X-3248494Y-1211713D01*
X-3254522Y-1201218D01*
X-3263744Y-1190838D01*
X-3274239Y-1183150D01*
X-3284734Y-1178232D01*
X-3295229Y-1175426D01*
X-3305724Y-1174453D01*
X-3306320Y-1174450D01*
X-3369820Y-1237950D02*
X-3369603Y-1232703D01*
X-3367838Y-1222208D01*
X-3364146Y-1211713D01*
X-3358118Y-1201218D01*
X-3348896Y-1190838D01*
X-3338401Y-1183150D01*
X-3327906Y-1178232D01*
X-3317411Y-1175426D01*
X-3306916Y-1174453D01*
X-3306320Y-1174450D01*
X-3369820Y-1237950D02*
X-3369603Y-1243197D01*
X-3367838Y-1253692D01*
X-3364146Y-1264187D01*
X-3358118Y-1274682D01*
X-3348896Y-1285062D01*
X-3338401Y-1292750D01*
X-3327906Y-1297668D01*
X-3317411Y-1300474D01*
X-3306916Y-1301447D01*
X-3306320Y-1301450D01*
X-3242820Y-1237950D02*
X-3243037Y-1243197D01*
X-3244802Y-1253692D01*
X-3248494Y-1264187D01*
X-3254522Y-1274682D01*
X-3263744Y-1285062D01*
X-3274239Y-1292750D01*
X-3284734Y-1297668D01*
X-3295229Y-1300474D01*
X-3305724Y-1301447D01*
X-3306320Y-1301450D01*
X-3306320Y-1174450D02*
X-3306320Y-1301450D01*
X-3369820Y-1237950D02*
X-3242820Y-1237950D01*
D71*
X-2983740Y-1225250D02*
X-2958340Y-1199850D01*
X-2958340Y-1276050D01*
X-2869440Y-1263350D02*
X-2856740Y-1263350D01*
X-2856740Y-1276050D01*
X-2869440Y-1276050D01*
X-2869440Y-1263350D01*
X-2805940Y-1263350D02*
X-2805940Y-1212550D01*
X-2793240Y-1199850D01*
X-2742440Y-1199850D01*
X-2729740Y-1212550D01*
X-2729740Y-1263350D01*
X-2742440Y-1276050D01*
X-2793240Y-1276050D01*
X-2805940Y-1263350D01*
X-2805940Y-1276050D02*
X-2729740Y-1199850D01*
X-2678940Y-1225250D02*
X-2653540Y-1199850D01*
X-2653540Y-1276050D01*
X-2526540Y-1212550D02*
X-2539240Y-1199850D01*
X-2577340Y-1199850D01*
X-2590040Y-1212550D01*
X-2590040Y-1263350D01*
X-2577340Y-1276050D01*
X-2539240Y-1276050D01*
X-2526540Y-1263350D01*
X-2526540Y-1250650D01*
X-2539240Y-1237950D01*
X-2590040Y-1237950D01*
X-2501140Y-1276050D02*
X-2501140Y-1225250D01*
X-2501140Y-1237950D02*
X-2488440Y-1225250D01*
X-2463040Y-1250650D01*
X-2437640Y-1225250D01*
X-2424940Y-1237950D01*
X-2424940Y-1276050D01*
X-2399540Y-1276050D02*
X-2399540Y-1225250D01*
X-2399540Y-1237950D02*
X-2386840Y-1225250D01*
X-2361440Y-1250650D01*
X-2336040Y-1225250D01*
X-2323340Y-1237950D01*
X-2323340Y-1276050D01*
X-2107440Y-1199850D02*
X-2183640Y-1276050D01*
X-2183640Y-1199850D02*
X-2145540Y-1237950D01*
X-2005840Y-1276050D02*
X-2082040Y-1276050D01*
X-2082040Y-1199850D01*
X-2005840Y-1199850D01*
X-2082040Y-1237950D02*
X-2031240Y-1237950D01*
X-1980440Y-1263350D02*
X-1967740Y-1276050D01*
X-1916940Y-1276050D01*
X-1904240Y-1263350D01*
X-1904240Y-1250650D01*
X-1916940Y-1237950D01*
X-1967740Y-1237950D01*
X-1980440Y-1225250D01*
X-1980440Y-1212550D01*
X-1967740Y-1199850D01*
X-1916940Y-1199850D01*
X-1904240Y-1212550D01*
X-1261620Y-1250650D02*
X-1337820Y-1250650D01*
X-1287020Y-1199850D01*
X-1287020Y-1276050D01*
D70*
X-3242820Y-1479250D02*
X-3243037Y-1474003D01*
X-3244802Y-1463508D01*
X-3248494Y-1453013D01*
X-3254522Y-1442518D01*
X-3263744Y-1432138D01*
X-3274239Y-1424450D01*
X-3284734Y-1419532D01*
X-3295229Y-1416726D01*
X-3305724Y-1415753D01*
X-3306320Y-1415750D01*
X-3369820Y-1479250D02*
X-3369603Y-1474003D01*
X-3367838Y-1463508D01*
X-3364146Y-1453013D01*
X-3358118Y-1442518D01*
X-3348896Y-1432138D01*
X-3338401Y-1424450D01*
X-3327906Y-1419532D01*
X-3317411Y-1416726D01*
X-3306916Y-1415753D01*
X-3306320Y-1415750D01*
X-3369820Y-1479250D02*
X-3369603Y-1484497D01*
X-3367838Y-1494992D01*
X-3364146Y-1505487D01*
X-3358118Y-1515982D01*
X-3348896Y-1526362D01*
X-3338401Y-1534050D01*
X-3327906Y-1538968D01*
X-3317411Y-1541774D01*
X-3306916Y-1542747D01*
X-3306320Y-1542750D01*
X-3242820Y-1479250D02*
X-3243037Y-1484497D01*
X-3244802Y-1494992D01*
X-3248494Y-1505487D01*
X-3254522Y-1515982D01*
X-3263744Y-1526362D01*
X-3274239Y-1534050D01*
X-3284734Y-1538968D01*
X-3295229Y-1541774D01*
X-3305724Y-1542747D01*
X-3306320Y-1542750D01*
X-3351221Y-1434349D02*
X-3261419Y-1524151D01*
X-3351221Y-1524151D02*
X-3261419Y-1434349D01*
D71*
X-2983740Y-1466550D02*
X-2958340Y-1441150D01*
X-2958340Y-1517350D01*
X-2869440Y-1504650D02*
X-2856740Y-1504650D01*
X-2856740Y-1517350D01*
X-2869440Y-1517350D01*
X-2869440Y-1504650D01*
X-2729740Y-1441150D02*
X-2793240Y-1441150D01*
X-2793240Y-1466550D01*
X-2742440Y-1466550D01*
X-2729740Y-1479250D01*
X-2729740Y-1504650D01*
X-2742440Y-1517350D01*
X-2780540Y-1517350D01*
X-2793240Y-1504650D01*
X-2691640Y-1453850D02*
X-2678940Y-1441150D01*
X-2640840Y-1441150D01*
X-2628140Y-1453850D01*
X-2628140Y-1466550D01*
X-2640840Y-1479250D01*
X-2678940Y-1479250D01*
X-2691640Y-1491950D01*
X-2691640Y-1517350D01*
X-2628140Y-1517350D01*
X-2526540Y-1491950D02*
X-2602740Y-1491950D01*
X-2551940Y-1441150D01*
X-2551940Y-1517350D01*
X-2501140Y-1517350D02*
X-2501140Y-1466550D01*
X-2501140Y-1479250D02*
X-2488440Y-1466550D01*
X-2463040Y-1491950D01*
X-2437640Y-1466550D01*
X-2424940Y-1479250D01*
X-2424940Y-1517350D01*
X-2399540Y-1517350D02*
X-2399540Y-1466550D01*
X-2399540Y-1479250D02*
X-2386840Y-1466550D01*
X-2361440Y-1491950D01*
X-2336040Y-1466550D01*
X-2323340Y-1479250D01*
X-2323340Y-1517350D01*
X-2107440Y-1441150D02*
X-2183640Y-1517350D01*
X-2183640Y-1441150D02*
X-2145540Y-1479250D01*
X-2005840Y-1517350D02*
X-2082040Y-1517350D01*
X-2082040Y-1441150D01*
X-2005840Y-1441150D01*
X-2082040Y-1479250D02*
X-2031240Y-1479250D01*
X-1980440Y-1504650D02*
X-1967740Y-1517350D01*
X-1916940Y-1517350D01*
X-1904240Y-1504650D01*
X-1904240Y-1491950D01*
X-1916940Y-1479250D01*
X-1967740Y-1479250D01*
X-1980440Y-1466550D01*
X-1980440Y-1453850D01*
X-1967740Y-1441150D01*
X-1916940Y-1441150D01*
X-1904240Y-1453850D01*
X-1325120Y-1453850D02*
X-1312420Y-1441150D01*
X-1274320Y-1441150D01*
X-1261620Y-1453850D01*
X-1261620Y-1466550D01*
X-1274320Y-1479250D01*
X-1312420Y-1479250D01*
X-1325120Y-1491950D01*
X-1325120Y-1517350D01*
X-1261620Y-1517350D01*
M02*
